# xmcd
#
# Track frame offsets:
#	150
#	12559
#	27534
#	39743
#	52953
#	69880
#	83944
#	97193
#	111935
#	125428
#	138892
#	149228
#	165078
#	177802
#	188653
#	202880
#	212556
#	225688
#	241164
#	256107
#	271438
#
# Disc length: 3784
#
# Revision: 1
# Processed by: cddbd v1.5.1PL0 Copyright (c) Steve Scherf et al.
# Submitted via: dBpowerAMP V4.0
# Normalized: r0:TDELIM( - )
#
DISCID=250ec615
DTITLE=Various Artist - On The Road Again
DYEAR=1900
DGENRE=Country
TTITLE0=Kenny Rogers - Reubem James
TTITLE1=Willie Nelson - Face of a Fighter
TTITLE2=Shania Twain - Bite my Lip
TTITLE3=Country Dance Kings - Easy Come Easy Go
TTITLE4=América - A Hourse With No Name
TTITLE5=Instrumental - Country Guitar n° 1
TTITLE6=Ray Kennedy - What a Way to Go
TTITLE7=John Denver - Take Me Home Country Road
TTITLE8=Jennifer Weatherly - In The Name of Love
TTITLE9=T. Graham Brown - I Feel It Like It Used To Be
TTITLE10=Frankie Laine - Mule Skinner Blues
TTITLE11=Olivia Newton John - Let Me Be There
TTITLE12=Country Dance Kings - Wink
TTITLE13=Smokey - Hey Tonite
TTITLE14=Don Williams - Come Early Morning
TTITLE15=Eddie Jones - Deep In The Heart of Texas
TTITLE16=Kenny Rogers - Ruby Don't Take Your Love to Town
TTITLE17=Jeff Turner - There's Music In The Mountains
TTITLE18=Jeannie C. Riley - Harper Valley Pta
TTITLE19=Country Dance Kings - Achy Breaky Hearts
TTITLE20=Bobby Bare - 500 Miles Away From Home
EXTD=
EXTT0=
EXTT1=
EXTT2=
EXTT3=
EXTT4=
EXTT5=
EXTT6=
EXTT7=
EXTT8=
EXTT9=
EXTT10=
EXTT11=
EXTT12=
EXTT13=
EXTT14=
EXTT15=
EXTT16=
EXTT17=
EXTT18=
EXTT19=
EXTT20=
PLAYORDER=
